<svg width="48" height="56" viewBox="0 0 48 56" version="1.1" xmlns="http://www.w3.org/2000/svg" xmlns:xlink="http://www.w3.org/1999/xlink">
<title>tarif</title>
<desc>Created using Figma</desc>
<g id="Canvas" transform="translate(-5684 4210)">
<g id="tarif">
<g id="Group">
<g id="Subtract">
<use xlink:href="#path0_fill" transform="translate(5690.06 -4197.39)" fill="#F2C94C"/>
</g>
<g id="Union">
<use xlink:href="#path1_fill" transform="translate(5684 -4210)" fill="#333333"/>
</g>
</g>
</g>
</g>
<defs>
<path id="path0_fill" fill-rule="evenodd" d="M 0 0L 29.3052 0L 29.3052 21.189L 26.2734 24.2163L 22.2314 24.2163C 18.8828 24.2163 16.1685 26.9268 16.1685 30.2705C 16.1685 30.4399 16.1753 30.6074 16.189 30.7729L 16.1685 30.7749L 16.1685 34.3062L 13.1367 37.3335L 0 37.3335L 0 0Z"/>
<path id="path1_fill" fill-rule="evenodd" d="M 12.5781 0C 11.7409 0 11.0623 0.67762 11.0623 1.51351C 11.0623 2.34941 11.7409 3.02703 12.5781 3.02703L 42.4421 3.02703C 43.8373 3.02703 44.9684 4.1564 44.9684 5.54955L 44.9684 28.2119C 44.9684 29.0478 45.6471 29.7254 46.4842 29.7254C 47.3213 29.7254 48 29.0478 48 28.2119L 48 5.54955C 48 2.48462 45.5116 0 42.4421 0L 12.5781 0ZM 41.5624 38.5643L 40.0433 40.0778L 25.5782 54.4898L 24.0624 56L 22.5466 56L 4.04211 56C 1.80971 56 0 54.193 0 51.964L 0 9.90848C 0 7.67944 1.80971 5.87244 4.04211 5.87244L 37.5202 5.87244C 39.7527 5.87244 41.5624 7.67944 41.5624 9.90848L 41.5624 37.0508L 41.5624 38.5643ZM 22.5466 42.6004L 22.5466 52.973L 4.04211 52.973C 3.484 52.973 3.03158 52.5212 3.03158 51.964L 3.03158 9.90848C 3.03158 9.35122 3.484 8.89947 4.04211 8.89947L 37.5202 8.89947C 38.0784 8.89947 38.5308 9.35122 38.5308 9.90848L 38.5308 37.0508L 28.1045 37.0508C 25.035 37.0508 22.5466 39.5354 22.5466 42.6004ZM 28.1045 40.0778L 35.7513 40.0778L 25.5782 50.2136L 25.5782 42.6004C 25.5782 41.2072 26.7093 40.0778 28.1045 40.0778ZM 9.29685 16.7697C 10.2029 16.7697 10.9375 16.0379 10.9375 15.1351C 10.9375 14.2324 10.2029 13.5005 9.29685 13.5005C 8.39076 13.5005 7.65623 14.2324 7.65623 15.1351C 7.65623 16.0379 8.39076 16.7697 9.29685 16.7697ZM 7.65623 20.5873C 7.65623 19.6826 8.39076 18.9492 9.29685 18.9492C 10.2029 18.9492 10.9375 19.6826 10.9375 20.5873L 10.9375 31.4775C 10.9375 32.3823 10.2029 33.1157 9.29685 33.1157C 8.39076 33.1157 7.65623 32.3823 7.65623 31.4775L 7.65623 20.5873ZM 16.4062 15.1351C 16.4062 16.0379 17.1391 16.7697 18.0432 16.7697L 32.2691 16.7697C 33.1732 16.7697 33.9061 16.0379 33.9061 15.1351C 33.9061 14.2324 33.1732 13.5005 32.2691 13.5005L 18.0432 13.5005C 17.1391 13.5005 16.4062 14.2324 16.4062 15.1351ZM 18.0432 22.2184C 17.1391 22.2184 16.4062 21.4866 16.4062 20.5838C 16.4062 19.681 17.1391 18.9492 18.0432 18.9492L 32.2691 18.9492C 33.1732 18.9492 33.9061 19.681 33.9061 20.5838C 33.9061 21.4866 33.1732 22.2184 32.2691 22.2184L 18.0432 22.2184ZM 16.4062 26.0324C 16.4062 26.9352 17.1391 27.667 18.0432 27.667L 32.2691 27.667C 33.1732 27.667 33.9061 26.9352 33.9061 26.0324C 33.9061 25.1297 33.1732 24.3978 32.2691 24.3978L 18.0432 24.3978C 17.1391 24.3978 16.4062 25.1297 16.4062 26.0324ZM 18.0432 33.1157C 17.1391 33.1157 16.4062 32.3839 16.4062 31.4811C 16.4062 30.5783 17.1391 29.8465 18.0432 29.8465L 32.2691 29.8465C 33.1732 29.8465 33.9061 30.5783 33.9061 31.4811C 33.9061 32.3839 33.1732 33.1157 32.2691 33.1157L 18.0432 33.1157Z"/>
</defs>
</svg>
