<svg width="56" height="56" viewBox="0 0 56 56" version="1.1" xmlns="http://www.w3.org/2000/svg" xmlns:xlink="http://www.w3.org/1999/xlink">
<g id="Canvas" fill="none">
<g id="Group">
<g id="Union">
<path fill-rule="evenodd" clip-rule="evenodd" d="M 19 3L 44.6909 3C 45.2432 3 45.6909 3.44775 45.6909 4L 45.6909 8L 48.6909 8L 48.6909 4C 48.6909 1.79077 46.9 0 44.6909 0L 19 0C 16.7908 0 15 1.79077 15 4L 15 11L 5.5 11C 2.46246 11 0 13.4624 0 16.5L 0 39.5C 0 42.5376 2.46246 45 5.5 45L 15 45L 15 52C 15 54.2092 16.7908 56 19 56L 44.6909 56C 46.9 56 48.6909 54.2092 48.6909 52L 48.6909 48L 45.6909 48L 45.6909 52C 45.6909 52.5522 45.2432 53 44.6909 53L 19 53C 18.4477 53 18 52.5522 18 52L 18 4C 18 3.44775 18.4477 3 19 3ZM 15 42L 15 26L 3 26L 3 39.5C 3 40.8806 4.11926 42 5.5 42L 15 42ZM 15 18L 15 14L 5.5 14C 4.11926 14 3 15.1194 3 16.5L 3 18L 15 18ZM 27.8638 49.3762C 27.8638 48.3787 28.6725 47.5698 29.6702 47.5698L 35.2457 47.5698C 36.2434 47.5698 37.0522 48.3787 37.0522 49.3762C 37.0522 50.374 36.2434 51.1826 35.2457 51.1826L 29.6702 51.1826C 28.6725 51.1826 27.8638 50.374 27.8638 49.3762ZM 7.08203 30.5C 6.2536 30.5 5.58203 31.1716 5.58203 32C 5.58203 32.8284 6.2536 33.5 7.08203 33.5L 9.5 33.5C 10.3284 33.5 11 32.8284 11 32C 11 31.1716 10.3284 30.5 9.5 30.5L 7.08203 30.5ZM 5.58203 37C 5.58203 36.1716 6.2536 35.5 7.08203 35.5L 11.5 35.5C 12.3284 35.5 13 36.1716 13 37C 13 37.8284 12.3284 38.5 11.5 38.5L 7.08203 38.5C 6.2536 38.5 5.58203 37.8284 5.58203 37Z" fill="#333333"/>
</g>
<g id="Group_2">
<g id="Subtract">
<path fill-rule="evenodd" clip-rule="evenodd" d="M 25.9727 5C 26.1416 5 26.3086 4.99072 26.4727 4.97253L 26.4727 16.0275C 26.3086 16.0093 26.1416 16 25.9727 16C 23.4873 16 21.4727 18.0148 21.4727 20.5C 21.4727 20.6689 21.4814 20.8358 21.5 21L 0 21L 0 0L 21.5 0C 21.4814 0.164185 21.4727 0.331055 21.4727 0.5C 21.4727 2.98523 23.4873 5 25.9727 5Z" transform="translate(23.5 17.5)" fill="#F7D145"/>
</g>
<g id="Rectangle 8 (Stroke)">
<path fill-rule="evenodd" clip-rule="evenodd" d="M 5.5 3C 4.11929 3 3 4.11929 3 5.5L 3 28.5C 3 29.8807 4.11929 31 5.5 31L 32.5 31C 33.3284 31 34 31.6716 34 32.5C 34 33.3284 33.3284 34 32.5 34L 5.5 34C 2.46243 34 0 31.5376 0 28.5L 0 5.5C 0 2.46243 2.46243 0 5.5 0L 32.5 0C 33.3284 0 34 0.671573 34 1.5C 34 2.32843 33.3284 3 32.5 3L 5.5 3Z" transform="translate(56 11) scale(-1 1)" fill="#333333"/>
</g>
<g id="Ellipse 14 (Stroke)">
<path fill-rule="evenodd" clip-rule="evenodd" d="M 0 1.65C 0 0.73873 0.671573 0 1.5 0C 7.21706 0 12 4.83728 12 11C 12 17.1627 7.21706 22 1.5 22C 0.671573 22 0 21.2613 0 20.35C 0 19.4387 0.671573 18.7 1.5 18.7C 5.72407 18.7 9 15.165 9 11C 9 6.835 5.72407 3.3 1.5 3.3C 0.671573 3.3 0 2.56127 0 1.65Z" transform="translate(22.5 17)" fill="#333333"/>
</g>
</g>
</g>
</g>
</svg>

