<svg width="56" height="56" viewBox="0 0 56 56" fill="none" xmlns="http://www.w3.org/2000/svg">
<path d="M0 4C0 1.79086 1.79086 0 4 0H44C46.2091 0 48 1.79086 48 4V38C48 40.2091 46.2091 42 44 42H4C1.79086 42 0 40.2091 0 38V4Z" transform="translate(8)" fill="white"/>
<path fill-rule="evenodd" clip-rule="evenodd" d="M4 3H44C44.5523 3 45 3.44772 45 4V38C45 38.5523 44.5523 39 44 39H21V42H44C46.2092 42 48 40.2091 48 38V4C48 1.79086 46.2092 0 44 0H4C1.79089 0 0 1.79086 0 4V8H3V4C3 3.44772 3.44775 3 4 3Z" transform="translate(8)" fill="#333333"/>
<path fill-rule="evenodd" clip-rule="evenodd" d="M36 0H0V2H11C12.8638 2 14.4299 3.27477 14.874 5H19.8323C20.6898 5 21.3849 5.69514 21.3849 6.55264C21.3849 7.41013 20.6898 8.10526 19.8323 8.10526H15V10H23.5C24.3284 10 25 10.6716 25 11.5C25 12.3284 24.3284 13 23.5 13H15V15H19.8323C20.6898 15 21.3849 15.6951 21.3849 16.5526C21.3849 17.4101 20.6898 18.1053 19.8323 18.1053H15V20H23.5C24.3284 20 25 20.6716 25 21.5C25 22.3284 24.3284 23 23.5 23H15V26H36V0Z" transform="translate(14 6)" fill="#F2C94C"/>
<path d="M0 4C0 1.79086 1.79086 0 4 0H25C27.2091 0 29 1.79086 29 4V44C29 46.2091 27.2091 48 25 48H4C1.79086 48 0 46.2091 0 44V4Z" transform="translate(0 8)" fill="white"/>
<path fill-rule="evenodd" clip-rule="evenodd" d="M25 3H4C3.44772 3 3 3.44772 3 4V44C3 44.5523 3.44772 45 4 45H25C25.5523 45 26 44.5523 26 44V4C26 3.44772 25.5523 3 25 3ZM4 0C1.79086 0 0 1.79086 0 4V44C0 46.2091 1.79086 48 4 48H25C27.2091 48 29 46.2091 29 44V4C29 1.79086 27.2091 0 25 0H4Z" transform="translate(0 8)" fill="#333333"/>
<path d="M0 0H17V33H0V0Z" transform="translate(6 14)" fill="#F2C94C"/>
<path d="M0 1.53275C0 0.686234 0.686234 0 1.53275 0H6.2635C7.11001 0 7.79624 0.686234 7.79624 1.53275C7.79624 2.37926 7.11001 3.06549 6.2635 3.06549H1.53275C0.686234 3.06549 0 2.37926 0 1.53275Z" transform="translate(11 48.5)" fill="#333333"/>
<path d="M0 1.53275C0 0.686234 0.686234 0 1.53275 0H6.2635C7.11001 0 7.79624 0.686234 7.79624 1.53275C7.79624 2.37926 7.11001 3.06549 6.2635 3.06549H1.53275C0.686234 3.06549 0 2.37926 0 1.53275Z" transform="translate(28 34)" fill="#333333"/>
</svg>
